<mxfile host="app.diagrams.net" modified="2023-07-03T06:29:52.552Z" agent="Mozilla/5.0 (Windows NT 10.0; Win64; x64) AppleWebKit/537.36 (KHTML, like Gecko) Chrome/113.0.0.0 Safari/537.36" version="21.5.2" etag="BCwbeIVZqhnN4NYD6TiH" type="github">
  <diagram name="Page-1" id="OLHBO75CEhQvCPeGrYxA">
    <mxGraphModel>
      <root>
        <mxCell id="0" />
        <mxCell id="1" parent="0" />
      </root>
    </mxGraphModel>
  </diagram>
</mxfile>
